<svg xmlns="http://www.w3.org/2000/svg" viewBox="40 622 955 170">
<path fill="#ff2a6d" fill-rule="evenodd" d="M 46.981 654.616 C 47.037 653.949 47.082 653.291 47.083 652.621 C 48.802 651.664 52.056 652.307 54.01 652.296 C 58.177 652.272 62.348 652.308 66.515 652.356 C 68.855 652.384 71.302 652.198 73.593 652.754 C 73.935 655.967 73.656 659.268 73.675 662.496 C 73.712 668.83 73.773 675.161 73.694 681.495 C 73.516 695.824 73.716 710.165 73.692 724.495 C 73.682 730.136 73.968 735.872 73.442 741.49 C 73.243 743.615 73.759 746.293 72.713 748.24 C 72.06 749.456 70.581 750.341 69.615 751.304 C 63.569 757.331 58.411 764.254 52.417 770.346 C 50.972 771.815 49.881 773.559 48.504 775.077 C 48.173 775.443 47.43 776.474 46.865 776.121 C 47.501 763.977 47.206 751.696 47.254 739.499 C 47.328 720.501 47.399 701.498 47.257 682.5 C 47.188 673.247 46.659 663.852 46.981 654.616 Z M 49.403 655.335 C 49.014 658.905 49.386 662.479 49.46 666.056 C 49.594 672.458 49.484 678.917 49.517 685.324 C 49.617 704.551 49.635 723.778 49.71 743.006 C 49.737 750.013 49.656 756.996 49.511 764 C 49.477 765.646 49.719 767.242 49.778 768.879 C 49.787 769.144 49.679 770.219 50.15 770.24 C 50.68 770.263 51.028 769.097 51.227 768.75 C 52.059 767.296 53.706 766.198 54.901 765.043 C 56.782 763.227 58.254 761.106 60.028 759.205 C 63.6 755.378 67.335 751.598 70.746 747.65 C 71.745 745.323 71.127 741.998 71.139 739.497 C 71.169 733.329 71.153 727.162 71.205 720.995 C 71.311 708.163 71.207 695.328 71.222 682.496 C 71.234 673.394 71.55 664.242 70.922 655.166 C 69.044 654.65 67.011 654.871 65.08 654.811 C 59.807 654.646 54.656 655.17 49.403 655.335 Z"/>
<path fill="#00ffff" fill-rule="evenodd" d="M 49.403 655.335 C 54.656 655.17 59.807 654.646 65.08 654.811 C 67.011 654.871 69.044 654.65 70.922 655.166 C 71.55 664.242 71.234 673.394 71.222 682.496 C 71.207 695.328 71.311 708.163 71.205 720.995 C 71.153 727.162 71.169 733.329 71.139 739.497 C 71.127 741.998 71.745 745.323 70.746 747.65 C 67.335 751.598 63.6 755.378 60.028 759.205 C 58.254 761.106 56.782 763.227 54.901 765.043 C 53.706 766.198 52.059 767.296 51.227 768.75 C 51.028 769.097 50.68 770.263 50.15 770.24 C 49.679 770.219 49.787 769.144 49.778 768.879 C 49.719 767.242 49.477 765.646 49.511 764 C 49.656 756.996 49.737 750.013 49.71 743.006 C 49.635 723.778 49.617 704.551 49.517 685.324 C 49.484 678.917 49.594 672.458 49.46 666.056 C 49.386 662.479 49.014 658.905 49.403 655.335 Z"/>
<path fill="#ff2a6d" fill-rule="evenodd" d="M 58.611 772.145 C 59.128 773.407 59.753 773.576 60.995 773.545 C 68.407 774.734 76.513 773.893 84.006 773.855 C 97.506 773.786 111.007 773.803 124.507 773.77 C 129.804 773.757 135.092 773.743 140.388 773.591 C 141.578 773.557 145.105 773.849 145.985 773.063 C 142.777 768.25 139.206 763.668 135.964 758.868 C 134.663 756.942 133.295 753.441 131.217 752.265 C 130.088 751.627 128.263 751.953 127.002 751.942 C 123.834 751.914 120.668 751.869 117.5 751.862 C 108.537 751.842 99.576 751.693 90.613 751.748 C 86.656 751.773 81.741 751.069 77.926 752.267 C 77.899 751.835 77.42 751.521 77.136 751.221 C 78.817 749.003 80.971 749.381 83.51 749.357 C 88.509 749.31 93.508 749.335 98.507 749.301 C 106.313 749.247 114.117 749.432 121.925 749.368 C 124.83 749.344 129.581 748.57 132.145 750.161 C 133.753 751.159 134.947 753.482 135.985 755.027 C 138.33 758.52 140.814 761.937 143.223 765.388 C 145.067 768.028 146.743 770.731 148.833 773.19 C 149.341 773.788 150.854 775.35 150.775 776.191 C 142.128 775.542 133.178 776.13 124.504 776.181 C 109.842 776.267 95.172 776.223 80.51 776.148 C 74.843 776.119 69.176 776.152 63.509 776.156 C 60.967 776.158 57.951 776.654 55.475 776.2 C 55.952 774.506 57.37 773.309 58.611 772.145 Z"/>
<path fill="#ff2a6d" fill-rule="evenodd" d="M 77.136 751.221 C 77.42 751.521 77.899 751.835 77.926 752.267 C 76.209 753.391 75.03 755.894 73.8 757.518 C 71.247 760.893 68.532 764.237 65.555 767.249 C 63.733 769.092 61.379 770.845 60.995 773.545 C 59.753 773.576 59.128 773.407 58.611 772.145 C 60.407 769.35 63.134 767.044 65.241 764.477 C 68.875 760.05 72.751 754.917 77.136 751.221 Z"/>
<path fill="#00ffff" fill-rule="evenodd" d="M 77.926 752.267 C 81.741 751.069 86.656 751.773 90.613 751.748 C 99.576 751.693 108.537 751.842 117.5 751.862 C 120.668 751.869 123.834 751.914 127.002 751.942 C 128.263 751.953 130.088 751.627 131.217 752.265 C 133.295 753.441 134.663 756.942 135.964 758.868 C 139.206 763.668 142.777 768.25 145.985 773.063 C 145.105 773.849 141.578 773.557 140.388 773.591 C 135.092 773.743 129.804 773.757 124.507 773.77 C 111.007 773.803 97.506 773.786 84.006 773.855 C 76.513 773.893 68.407 774.734 60.995 773.545 C 61.379 770.845 63.733 769.092 65.555 767.249 C 68.532 764.237 71.247 760.893 73.8 757.518 C 75.03 755.894 76.209 753.391 77.926 752.267 Z"/>
<path fill="#ff2a6d" fill-rule="evenodd" d="M 173.942 669.992 C 172.882 669.485 172.439 670.939 172.081 671.657 C 164.087 686.9 157.226 702.874 150.507 718.711 C 147.891 724.879 145.216 731.092 142.385 737.163 C 141.241 739.616 139.913 742.27 139.248 744.901 C 138.809 746.637 140.62 748.228 141.666 749.46 C 144.443 752.732 146.33 756.604 148.745 760.124 C 149.261 760.877 150.911 764.12 151.901 763.95 C 153.247 762.64 153.658 760.206 154.413 758.539 C 156.351 754.256 158.242 749.931 160.331 745.72 C 164.584 737.152 169.324 728.729 173.109 719.934 C 175.644 714.042 178.24 708.195 180.865 702.342 C 181.837 700.176 182.531 697.665 183.69 695.614 C 184.176 694.753 185.165 694.665 185.591 693.897 C 186.472 695.178 184.949 697.776 184.399 699.025 C 182.423 703.512 180.193 707.883 178.188 712.356 C 172.709 724.58 166.344 736.429 161.012 748.712 C 159.049 753.236 156.872 757.68 154.987 762.235 C 154.045 764.512 153.591 767.223 152.44 769.375 C 151.123 768.169 150.405 766.022 149.384 764.537 C 146.549 760.419 143.629 756.38 140.983 752.135 C 139.722 750.113 137.452 747.949 136.823 745.642 C 136.63 743.777 137.767 741.9 138.461 740.215 C 140.2 735.999 142.263 731.951 144.101 727.778 C 150.516 713.21 156.775 698.577 163.457 684.128 C 165.52 679.667 167.49 675.173 169.654 670.758 C 170.274 669.494 171.134 666.814 172.43 666.185 C 173.007 667.376 173.538 668.728 173.942 669.992 Z"/>
<path fill="#00ffff" fill-rule="evenodd" d="M 173.942 669.992 C 176.363 675.836 179.566 681.328 182.368 686.991 C 183.479 689.235 184.916 691.471 185.591 693.897 C 185.165 694.665 184.176 694.753 183.69 695.614 C 182.531 697.665 181.837 700.176 180.865 702.342 C 178.24 708.195 175.644 714.042 173.109 719.934 C 169.324 728.729 164.584 737.152 160.331 745.72 C 158.242 749.931 156.351 754.256 154.413 758.539 C 153.658 760.206 153.247 762.64 151.901 763.95 C 150.911 764.12 149.261 760.877 148.745 760.124 C 146.33 756.604 144.443 752.732 141.666 749.46 C 140.62 748.228 138.809 746.637 139.248 744.901 C 139.913 742.27 141.241 739.616 142.385 737.163 C 145.216 731.092 147.891 724.879 150.507 718.711 C 157.226 702.874 164.087 686.9 172.081 671.657 C 172.439 670.939 172.882 669.485 173.942 669.992 Z"/>
<path fill="#ff2a6d" fill-rule="evenodd" d="M 167.458 750.069 C 169.057 745.28 171.874 740.729 174.136 736.226 C 176.255 732.006 178.221 726.965 181.39 723.41 C 182.681 722.827 184.384 723.177 185.774 723.216 C 188.816 723.301 192.686 722.762 195.598 723.683 C 197.524 726.792 198.659 730.37 200.207 733.683 C 202.87 739.383 205.711 745.099 207.898 751.005 C 207.63 751.323 205.936 751.137 205.475 751.167 C 202.988 751.33 200.489 751.248 197.998 751.258 C 187.743 751.301 177.468 751.305 167.224 751.165 C 167.362 750.461 167.285 750.826 167.458 750.069 Z M 170.479 748.609 C 170.442 748.785 170.406 748.962 170.369 749.139 C 177.656 749.679 185.187 749.127 192.5 749.119 C 196.364 749.116 201.193 749.854 204.925 748.859 C 204.631 747.257 203.314 745.367 202.612 743.87 C 200.748 739.896 198.754 735.98 196.932 731.984 C 196.079 730.113 195.426 726.892 193.603 725.738 C 191.195 725.202 188.483 725.323 186.02 725.241 C 185.258 725.216 184.188 724.935 183.467 725.278 C 181.136 726.389 179.852 729.972 178.778 732.121 C 176.061 737.555 173.71 743.459 170.479 748.609 Z"/>
<path fill="#00ffff" fill-rule="evenodd" d="M 170.479 748.609 C 173.71 743.459 176.061 737.555 178.778 732.121 C 179.852 729.972 181.136 726.389 183.467 725.278 C 184.188 724.935 185.258 725.216 186.02 725.241 C 188.483 725.323 191.195 725.202 193.603 725.738 C 195.426 726.892 196.079 730.113 196.932 731.984 C 198.754 735.98 200.748 739.896 202.612 743.87 C 203.314 745.367 204.631 747.257 204.925 748.859 C 201.193 749.854 196.364 749.116 192.5 749.119 C 185.187 749.127 177.656 749.679 170.369 749.139 C 170.406 748.962 170.442 748.785 170.479 748.609 Z"/>
<path fill="#ff2a6d" fill-rule="evenodd" d="M 174.86 658.537 C 176.916 653.198 179.485 648.074 181.773 642.834 C 183.749 638.31 185.608 633.225 188.431 629.166 C 189.356 629.423 189.618 630.461 190.021 631.28 C 191.023 633.313 191.981 635.414 192.861 637.502 C 196.494 646.12 200.481 654.582 204.274 663.129 C 211.629 679.696 218.741 696.35 225.952 712.978 C 230.166 722.696 234.882 732.196 238.948 741.982 C 241.908 749.106 244.805 756.451 248.3 763.329 C 249.82 766.32 251.158 769.345 252.385 772.462 C 252.829 773.589 253.674 775.024 253.772 776.216 C 247.213 775.912 240.576 776.127 234.009 776.116 C 231.502 776.112 227.66 776.863 225.358 775.821 C 223.469 773.437 222.524 769.912 221.309 767.137 C 218.554 760.846 215.993 754.481 213.285 748.177 C 208.495 737.03 203.483 725.995 198.593 714.893 C 194.591 705.806 191.159 696.476 187.164 687.382 C 184.011 680.204 179.604 673.311 177.044 665.899 C 176.278 663.68 174.189 660.801 174.86 658.537 Z M 176.858 659.533 C 176.271 662.712 179.189 666.813 180.612 669.488 C 184.107 676.058 187.207 682.888 190.16 689.71 C 198.897 709.89 207.163 730.289 216.129 750.368 C 219.559 758.049 224.081 765.673 226.759 773.636 C 228.615 774.455 231.953 773.791 234.006 773.791 C 239.578 773.791 245.217 774.112 250.779 773.774 C 247.031 764.873 242.544 756.226 238.61 747.384 C 226.795 720.826 215.284 694.136 203.63 667.508 C 199.902 658.99 195.848 650.634 192.259 642.053 C 191.39 639.975 190.461 637.958 189.659 635.851 C 189.416 635.211 189.247 634.247 188.531 634.294 C 186.345 637.139 185.004 641.071 183.462 644.314 C 181.099 649.282 178.825 654.395 176.858 659.533 Z"/>
<path fill="#00ffff" fill-rule="evenodd" d="M 176.858 659.533 C 178.825 654.395 181.099 649.282 183.462 644.314 C 185.004 641.071 186.345 637.139 188.531 634.294 C 189.247 634.247 189.416 635.211 189.659 635.851 C 190.461 637.958 191.39 639.975 192.259 642.053 C 195.848 650.634 199.902 658.99 203.63 667.508 C 215.284 694.136 226.795 720.826 238.61 747.384 C 242.544 756.226 247.031 764.873 250.779 773.774 C 245.217 774.112 239.578 773.791 234.006 773.791 C 231.953 773.791 228.615 774.455 226.759 773.636 C 224.081 765.673 219.559 758.049 216.129 750.368 C 207.163 730.289 198.897 709.89 190.16 689.71 C 187.207 682.888 184.107 676.058 180.612 669.488 C 179.189 666.813 176.271 662.712 176.858 659.533 Z"/>
<path fill="#ff2a6d" fill-rule="evenodd" d="M 249.459 686.617 C 250.313 681.596 250.85 676.811 253.243 672.197 C 257.779 663.451 266.015 656.338 275.549 653.668 C 281.88 651.896 288.499 652.204 295.003 652.232 C 303.503 652.27 312.004 652.271 320.505 652.261 C 328.503 652.251 336.501 652.216 344.5 652.21 C 346.513 652.208 348.548 652.194 350.557 652.336 C 351.146 652.377 352.181 652.352 352.457 652.932 C 351.388 656.297 348.54 659.658 346.56 662.565 C 343.549 666.988 340.819 671.452 337.446 675.622 C 336.667 676.585 336.148 677.766 335.237 678.615 C 331.6 679.405 327.22 678.78 323.505 678.762 C 314.685 678.719 305.865 678.711 297.045 678.715 C 292.33 678.717 287.022 678.113 282.409 679.227 C 274.21 681.209 272.536 694.239 279.599 698.487 C 285.295 701.912 293.776 700.64 300.112 700.625 C 305.408 700.612 310.716 700.55 316.009 700.697 C 319.639 700.798 323.42 700.876 326.896 702.063 C 331.96 703.791 336.563 707.086 340.454 710.689 C 351.937 721.321 355.341 740.621 348.513 754.703 C 345.998 759.889 342.536 763.817 338.285 767.612 C 335.911 769.732 333.587 771.548 330.673 772.892 C 321.699 777.032 311.631 776.121 302.011 776.124 C 294.011 776.126 286.008 776.067 278.009 776.103 C 272.815 776.125 267.429 776.441 262.272 775.895 C 260.264 774.156 259.165 770.314 258.014 767.943 C 255.098 761.939 251.311 755.997 249.048 749.744 C 249.54 748.945 252.774 749.319 253.691 749.316 C 258.131 749.305 262.569 749.305 267.009 749.326 C 280.606 749.389 294.206 749.198 307.802 749.35 C 314.117 749.421 320.931 750.096 324.594 743.831 C 328.367 737.38 324.149 728.172 316.59 727.217 C 299.137 725.01 279.542 731.494 264.219 720.237 C 260.987 717.863 258.455 714.882 256.097 711.675 C 253.617 708.303 251.765 704.527 250.713 700.463 C 249.546 695.951 248.993 691.27 249.459 686.617 Z M 251.938 687.11 C 251.572 692.136 252.163 696.888 253.603 701.706 C 256.97 712.972 266.333 721.273 277.703 723.887 C 284.809 725.521 292.77 724.737 300.008 724.77 C 306.333 724.8 314.591 723.376 320.376 726.428 C 329.551 731.268 330.938 745.968 320.739 750.641 C 317.411 752.166 312.929 751.839 309.352 751.862 C 302.07 751.91 294.785 751.85 287.503 751.847 C 280.159 751.843 272.808 751.812 265.466 751.638 C 261.442 751.542 256.619 750.869 252.715 751.998 C 253.548 755.352 255.985 758.495 257.476 761.612 C 259.321 765.47 260.666 770.235 263.281 773.642 C 265.365 774.136 267.865 773.784 270.006 773.771 C 274.339 773.744 278.671 773.708 283.004 773.724 C 291.338 773.754 299.673 773.748 308.007 773.771 C 316.194 773.792 324.331 773.797 331.723 769.743 C 350.762 759.301 355.095 731.449 341.354 715 C 336.806 709.557 329.512 704.841 322.509 703.469 C 319.005 702.783 315.312 703.083 311.766 703.113 C 308.014 703.145 304.226 702.871 300.497 702.913 C 296.669 702.956 292.9 702.979 289.076 702.861 C 286.839 702.792 284.359 702.84 282.242 701.998 C 278.352 700.449 274.623 697.068 273.442 692.974 C 271.674 686.85 275.461 679.513 281.434 677.259 C 285.994 675.538 291.739 676.251 296.509 676.282 C 304.842 676.337 313.176 676.322 321.509 676.35 C 325.817 676.365 330.609 677.017 334.846 676.145 C 336.963 674.736 338.464 671.867 339.815 669.751 C 342.765 665.128 346.662 660.091 348.527 654.909 C 346.05 654.04 342.157 654.776 339.512 654.762 C 332.346 654.724 325.179 654.788 318.012 654.769 C 309.847 654.747 301.68 654.8 293.515 654.752 C 288.316 654.721 282.854 654.275 277.75 655.457 C 267.956 657.726 259.649 664.884 255.174 673.734 C 253.033 677.968 252.548 682.496 251.938 687.11 Z"/>
<path fill="#00ffff" fill-rule="evenodd" d="M 251.938 687.11 C 252.548 682.496 253.033 677.968 255.174 673.734 C 259.649 664.884 267.956 657.726 277.75 655.457 C 282.854 654.275 288.316 654.721 293.515 654.752 C 301.68 654.8 309.847 654.747 318.012 654.769 C 325.179 654.788 332.346 654.724 339.512 654.762 C 342.157 654.776 346.05 654.04 348.527 654.909 C 346.662 660.091 342.765 665.128 339.815 669.751 C 338.464 671.867 336.963 674.736 334.846 676.145 C 330.609 677.017 325.817 676.365 321.509 676.35 C 313.176 676.322 304.842 676.337 296.509 676.282 C 291.739 676.251 285.994 675.538 281.434 677.259 C 275.461 679.513 271.674 686.85 273.442 692.974 C 274.623 697.068 278.352 700.449 282.242 701.998 C 284.359 702.84 286.839 702.792 289.076 702.861 C 292.9 702.979 296.669 702.956 300.497 702.913 C 304.226 702.871 308.014 703.145 311.766 703.113 C 315.312 703.083 319.005 702.783 322.509 703.469 C 329.512 704.841 336.806 709.557 341.354 715 C 355.095 731.449 350.762 759.301 331.723 769.743 C 324.331 773.797 316.194 773.792 308.007 773.771 C 299.673 773.748 291.338 773.754 283.004 773.724 C 278.671 773.708 274.339 773.744 270.006 773.771 C 267.865 773.784 265.365 774.136 263.281 773.642 C 260.666 770.235 259.321 765.47 257.476 761.612 C 255.985 758.495 253.548 755.352 252.715 751.998 C 256.619 750.869 261.442 751.542 265.466 751.638 C 272.808 751.812 280.159 751.843 287.503 751.847 C 294.785 751.85 302.07 751.91 309.352 751.862 C 312.929 751.839 317.411 752.166 320.739 750.641 C 330.938 745.968 329.551 731.268 320.376 726.428 C 314.591 723.376 306.333 724.8 300.008 724.77 C 292.77 724.737 284.809 725.521 277.703 723.887 C 266.333 721.273 256.97 712.972 253.603 701.706 C 252.163 696.888 251.572 692.136 251.938 687.11 Z"/>
<path fill="#ff2a6d" fill-rule="evenodd" d="M 347.724 678.651 C 351.956 673.441 355.529 667.31 359.15 661.656 C 360.93 658.878 362.871 654.798 365.622 652.869 C 366.866 651.996 368.674 652.332 370.098 652.329 C 374.07 652.32 378.041 652.329 382.012 652.328 C 397.012 652.326 412.013 652.302 427.013 652.339 C 434.679 652.357 442.345 652.401 450.011 652.427 C 451.802 652.434 453.598 652.378 455.388 652.4 C 456.034 652.407 457.112 652.33 457.425 652.961 C 456.577 655.804 454.218 658.584 452.541 661.032 C 449.93 664.844 447.642 668.845 445.115 672.708 C 444.078 674.293 442.397 677.908 440.629 678.644 C 435.374 679.605 429.341 678.782 424.003 678.773 C 413.006 678.754 402.01 678.769 391.012 678.739 C 381.345 678.713 371.67 678.71 362.002 678.734 C 357.418 678.745 352.238 679.473 347.724 678.651 Z M 352.853 675.118 C 352.815 675.302 352.778 675.485 352.74 675.669 C 373.334 677.206 394.358 676.691 415.009 676.393 C 420.842 676.309 426.675 676.434 432.509 676.384 C 434.967 676.363 438.103 676.799 440.454 676.004 C 442.602 674.258 444.037 670.8 445.362 668.396 C 446.937 665.537 448.718 662.779 450.396 659.979 C 451.31 658.455 452.622 656.733 453.066 655 C 451.17 654.495 448.958 654.926 447.003 654.907 C 442.671 654.865 438.337 654.892 434.005 654.88 C 419.674 654.838 405.34 654.913 391.01 654.79 C 385.342 654.742 379.676 654.692 374.008 654.786 C 372.15 654.817 369.22 654.127 367.518 654.87 C 365.387 655.799 364.002 658.71 362.734 660.52 C 359.359 665.342 356.063 670.195 352.853 675.118 Z"/>
<path fill="#00ffff" fill-rule="evenodd" d="M 352.853 675.118 C 356.063 670.195 359.359 665.342 362.734 660.52 C 364.002 658.71 365.387 655.799 367.518 654.87 C 369.22 654.127 372.15 654.817 374.008 654.786 C 379.676 654.692 385.342 654.742 391.01 654.79 C 405.34 654.913 419.674 654.838 434.005 654.88 C 438.337 654.892 442.671 654.865 447.003 654.907 C 448.958 654.926 451.17 654.495 453.066 655 C 452.622 656.733 451.31 658.455 450.396 659.979 C 448.718 662.779 446.937 665.537 445.362 668.396 C 444.037 670.8 442.602 674.258 440.454 676.004 C 438.103 676.799 434.967 676.363 432.509 676.384 C 426.675 676.434 420.842 676.309 415.009 676.393 C 394.358 676.691 373.334 677.206 352.74 675.669 C 352.778 675.485 352.815 675.302 352.853 675.118 Z"/>
<path fill="#ff2a6d" fill-rule="evenodd" d="M 386.528 775.649 C 387.096 769.014 386.632 762.159 386.648 755.5 C 386.688 739.332 386.599 723.164 386.607 706.997 C 386.611 698.825 386.099 690.412 386.79 682.271 C 395.14 681.87 403.85 681.831 412.205 682.152 C 412.832 692.324 412.459 702.614 412.398 712.801 C 412.317 726.355 412.436 739.922 412.374 753.485 C 412.349 759.152 412.357 764.82 412.295 770.486 C 412.279 771.907 412.319 773.337 412.251 774.756 C 412.234 775.102 412.332 775.75 411.996 775.942 C 406.879 776.425 401.643 776.159 396.503 776.172 C 393.269 776.18 389.761 776.589 386.561 776.186 C 386.55 776.007 386.539 775.828 386.528 775.649 Z M 388.979 683.888 C 387.974 685.509 388.713 689.099 388.732 691.004 C 388.792 696.834 388.727 702.663 388.772 708.493 C 388.869 721.162 388.687 733.831 388.736 746.5 C 388.771 755.484 389.191 764.601 388.714 773.57 C 389.866 774.419 392.587 773.862 394.006 773.86 C 397.339 773.856 400.673 773.853 404.006 773.887 C 405.857 773.906 407.992 774.212 409.806 773.855 C 410.438 767.499 409.866 760.895 409.911 754.508 C 410.02 739.174 409.851 723.84 409.909 708.505 C 409.931 702.672 409.947 696.838 409.927 691.004 C 409.92 689.21 410.525 685.894 409.586 684.326 C 408.199 684.317 406.854 684.678 405.467 684.687 C 400.045 684.721 394.375 684.389 388.979 683.888 Z"/>
<path fill="#00ffff" fill-rule="evenodd" d="M 388.979 683.888 C 394.375 684.389 400.045 684.721 405.467 684.687 C 406.854 684.678 408.199 684.317 409.586 684.326 C 410.525 685.894 409.92 689.21 409.927 691.004 C 409.947 696.838 409.931 702.672 409.909 708.505 C 409.851 723.84 410.02 739.174 409.911 754.508 C 409.866 760.895 410.438 767.499 409.806 773.855 C 407.992 774.212 405.857 773.906 404.006 773.887 C 400.673 773.853 397.339 773.856 394.006 773.86 C 392.587 773.862 389.866 774.419 388.714 773.57 C 389.191 764.601 388.771 755.484 388.736 746.5 C 388.687 733.831 388.869 721.162 388.772 708.493 C 388.727 702.663 388.792 696.834 388.732 691.004 C 388.713 689.099 387.974 685.509 388.979 683.888 Z"/>
<path fill="#ff2a6d" fill-rule="evenodd" d="M 489.283 653.428 C 490.028 652.55 491.452 652.768 492.545 652.751 C 495.53 652.704 498.513 652.591 501.5 652.602 C 503.349 652.609 505.164 652.705 507.005 652.814 C 507.085 652.819 508.677 652.861 508.544 653.118 C 508.091 653.993 505.856 654.9 505.022 655.5 C 501.684 657.902 498.041 660.336 494.18 661.807 C 492.994 662.26 491.081 662.52 490.289 663.593 C 489.809 664.243 490.268 664.573 490.321 665.239 C 490.348 665.585 489.516 666.269 489.405 665.644 C 489.208 661.589 489.213 657.486 489.283 653.428 Z"/>
<path fill="#ff2a6d" fill-rule="evenodd" d="M 508.187 656.748 C 509.02 657.819 506.52 659.74 505.859 660.512 C 502.893 663.977 500.587 667.95 497.803 671.551 C 497.064 672.508 495.987 673.385 495.389 674.419 C 495.187 674.77 494.817 675.674 495.312 675.958 C 496.361 676.558 498.422 676.22 499.592 676.226 C 502.898 676.242 506.201 676.412 509.508 676.424 C 519.685 676.46 529.864 676.54 540.038 676.586 C 545.361 676.61 551.199 675.728 556.431 676.999 C 563.257 678.657 566.91 685.865 566.175 692.489 C 565.681 696.948 562.387 701.217 558.171 702.749 C 555.567 703.695 552.329 703.569 549.588 703.619 C 540.238 703.787 530.86 703.804 521.508 703.757 C 516.548 703.733 510.857 702.981 506.122 704.792 C 501.658 706.498 497.232 710.494 494.357 714.259 C 493.434 715.467 492.411 716.748 491.952 718.222 C 490.961 721.407 491.74 725.682 491.744 728.999 C 491.753 736.659 491.87 744.318 491.876 751.979 C 491.879 756.479 491.929 760.98 491.878 765.48 C 491.847 768.179 491.484 771.164 492.019 773.817 C 499.032 774.784 506.768 773.907 513.846 773.809 C 514.202 772.838 513.89 771.673 513.994 770.653 C 514.343 767.241 514.171 763.424 513.958 760.008 C 513.526 753.057 513.907 745.968 513.896 739.004 C 513.889 734.731 513.264 729.913 514.079 725.714 C 514.845 724.774 517.342 725.115 518.49 725.109 C 522.825 725.088 527.163 725.081 531.498 725.099 C 545.598 725.158 561.627 727.629 573.727 718.821 C 593.305 704.569 591.678 670.736 570.409 658.952 C 561.015 653.748 550.381 654.85 540.002 654.873 C 533.169 654.888 526.336 654.819 519.503 654.861 C 516.501 654.88 513.369 654.619 510.385 654.896 C 511.215 652.058 514.967 652.731 517.244 652.502 C 524.348 651.786 531.871 652.333 539.012 652.382 C 544.512 652.42 550.025 652.227 555.508 652.586 C 558.765 652.799 562.007 652.789 565.162 653.753 C 580.587 658.467 589.361 674.404 589.712 689.7 C 590.089 706.148 579.65 722.109 563.352 726.512 C 556.488 728.367 548.538 727.411 541.493 727.367 C 535.493 727.329 529.494 727.406 523.494 727.375 C 521.429 727.365 518.104 726.68 516.303 727.834 C 515.692 737.645 516.342 747.652 516.332 757.486 C 516.327 761.82 516.251 766.156 516.281 770.489 C 516.294 772.337 516.022 774.457 516.308 776.27 C 507.636 775.633 498.554 775.893 489.861 776.1 C 488.903 774.509 489.637 770.879 489.65 769.005 C 489.694 763.004 489.636 757.004 489.659 751.004 C 489.686 744.206 489.688 737.407 489.637 730.609 C 489.608 726.687 489.209 722.419 489.924 718.545 C 490.614 714.807 494.281 711.289 496.896 708.759 C 499.768 705.981 503.163 703.295 507.052 702.135 C 512.109 700.626 518.333 701.31 523.545 701.298 C 530.365 701.283 537.185 701.192 544.005 701.209 C 548.611 701.22 555.108 702.358 559.235 699.848 C 566.975 695.14 565.526 683.562 557.92 679.707 C 554.827 678.14 550.208 678.805 546.845 678.786 C 539.064 678.742 531.283 678.791 523.502 678.768 C 516.337 678.747 509.172 678.621 502.007 678.717 C 498.024 678.771 493.496 679.35 489.593 678.61 C 491.315 676.134 493.467 674.051 495.3 671.654 C 497.738 668.466 499.97 665.192 502.683 662.219 C 504.256 660.496 506.089 657.795 508.187 656.748 Z"/>
<path fill="#00ffff" fill-rule="evenodd" d="M 508.187 656.748 C 508.625 655.913 509.469 655.14 510.385 654.896 C 513.369 654.619 516.501 654.88 519.503 654.861 C 526.336 654.819 533.169 654.888 540.002 654.873 C 550.381 654.85 561.015 653.748 570.409 658.952 C 591.678 670.736 593.305 704.569 573.727 718.821 C 561.627 727.629 545.598 725.158 531.498 725.099 C 527.163 725.081 522.825 725.088 518.49 725.109 C 517.342 725.115 514.845 724.774 514.079 725.714 C 513.264 729.913 513.889 734.731 513.896 739.004 C 513.907 745.968 513.526 753.057 513.958 760.008 C 514.171 763.424 514.343 767.241 513.994 770.653 C 513.89 771.673 514.202 772.838 513.846 773.809 C 506.768 773.907 499.032 774.784 492.019 773.817 C 491.484 771.164 491.847 768.179 491.878 765.48 C 491.929 760.98 491.879 756.479 491.876 751.979 C 491.87 744.318 491.753 736.659 491.744 728.999 C 491.74 725.682 490.961 721.407 491.952 718.222 C 492.411 716.748 493.434 715.467 494.357 714.259 C 497.232 710.494 501.658 706.498 506.122 704.792 C 510.857 702.981 516.548 703.733 521.508 703.757 C 530.86 703.804 540.238 703.787 549.588 703.619 C 552.329 703.569 555.567 703.695 558.171 702.749 C 562.387 701.217 565.681 696.948 566.175 692.489 C 566.91 685.865 563.257 678.657 556.431 676.999 C 551.199 675.728 545.361 676.61 540.038 676.586 C 529.864 676.54 519.685 676.46 509.508 676.424 C 506.201 676.412 502.898 676.242 499.592 676.226 C 498.422 676.22 496.361 676.558 495.312 675.958 C 494.817 675.674 495.187 674.77 495.389 674.419 C 495.987 673.385 497.064 672.508 497.803 671.551 C 500.587 667.95 502.893 663.977 505.859 660.512 C 506.52 659.74 509.02 657.819 508.187 656.748 Z"/>
<path fill="#ff2a6d" fill-rule="evenodd" d="M 597.915 652.997 C 597.954 652.843 597.994 652.688 598.033 652.534 C 600.253 652.132 602.61 652.431 604.86 652.44 C 609.108 652.456 613.339 652.439 617.591 652.473 C 619.232 652.486 623.086 651.852 624.393 652.882 C 624.075 659.886 624.391 666.974 624.387 673.989 C 624.378 688.657 624.397 703.321 624.338 717.988 C 624.304 726.265 622.597 737.491 628.818 744.072 C 632.455 747.919 637.528 749.422 642.647 749.832 C 652.469 750.62 662.644 747.456 666.108 737.194 C 667.332 733.566 667.127 729.625 667.143 725.85 C 667.167 720.065 667.181 714.281 667.201 708.497 C 667.244 695.995 667.245 683.496 667.226 670.994 C 667.217 664.858 667.699 658.531 667.23 652.418 C 673.821 652.371 680.417 652.427 687.009 652.392 C 688.841 652.382 690.679 652.323 692.509 652.363 C 693.035 652.374 693.864 652.213 694.273 652.559 C 694.722 657.785 694.275 663.248 694.23 668.495 C 694.131 680.123 693.773 691.805 693.909 703.422 C 693.993 710.651 694.035 717.869 694.062 725.095 C 694.081 730.245 694.338 735.72 693.17 740.772 C 692.062 745.565 689.868 750.139 687.397 754.367 C 671.014 782.398 626.731 784.858 606.912 759.435 C 605.339 757.417 603.68 755.432 602.486 753.155 C 596.436 741.62 597.907 728.561 597.914 716.011 C 597.921 703.266 598.187 690.519 598.11 677.774 C 598.06 669.568 597.328 661.187 597.915 652.997 Z M 599.975 660.607 C 599.285 669.42 599.803 678.596 600.023 687.424 C 600.285 697.939 600.137 708.489 600.163 719.008 C 600.195 732.115 599.363 745.111 607.181 756.414 C 622.984 779.263 661.55 780.883 680.181 760.58 C 685.87 754.381 689.592 746.667 690.969 738.36 C 692.029 731.966 691.636 725.335 691.632 718.883 C 691.626 710.087 691.706 701.29 691.73 692.494 C 691.755 683.16 691.812 673.827 691.828 664.494 C 691.832 662.197 691.813 659.901 691.801 657.604 C 691.797 656.843 692.06 655.535 691.556 654.923 C 684.377 654.618 676.929 655.561 669.799 654.848 C 669.363 657.141 669.667 659.681 669.693 662.009 C 669.741 666.174 669.738 670.34 669.728 674.506 C 669.694 688.234 669.703 701.965 669.536 715.692 C 669.439 723.691 670.79 733.034 667.07 740.376 C 664.844 744.768 660.78 748.633 656.233 750.556 C 653.96 751.517 651.25 751.818 648.811 752.067 C 638.673 753.102 626.886 749.277 623.105 738.874 C 620.741 732.37 621.857 724.24 621.875 717.43 C 621.914 703.288 621.862 689.146 621.891 675.004 C 621.9 670.504 621.932 666.004 621.932 661.504 C 621.932 659.559 622.342 657.07 621.866 655.191 C 619.145 655.398 616.344 654.952 613.614 654.887 C 609.156 654.78 604.696 654.995 600.242 654.759 C 599.991 656.704 600.13 658.659 599.975 660.607 Z"/>
<path fill="#00ffff" fill-rule="evenodd" d="M 599.975 660.607 C 600.13 658.659 599.991 656.704 600.242 654.759 C 604.696 654.995 609.156 654.78 613.614 654.887 C 616.344 654.952 619.145 655.398 621.866 655.191 C 622.342 657.07 621.932 659.559 621.932 661.504 C 621.932 666.004 621.9 670.504 621.891 675.004 C 621.862 689.146 621.914 703.288 621.875 717.43 C 621.857 724.24 620.741 732.37 623.105 738.874 C 626.886 749.277 638.673 753.102 648.811 752.067 C 651.25 751.818 653.96 751.517 656.233 750.556 C 660.78 748.633 664.844 744.768 667.07 740.376 C 670.79 733.034 669.439 723.691 669.536 715.692 C 669.703 701.965 669.694 688.234 669.728 674.506 C 669.738 670.34 669.741 666.174 669.693 662.009 C 669.667 659.681 669.363 657.141 669.799 654.848 C 676.929 655.561 684.377 654.618 691.556 654.923 C 692.06 655.535 691.797 656.843 691.801 657.604 C 691.813 659.901 691.832 662.197 691.828 664.494 C 691.812 673.827 691.755 683.16 691.73 692.494 C 691.706 701.29 691.626 710.087 691.632 718.883 C 691.636 725.335 692.029 731.966 690.969 738.36 C 689.592 746.667 685.87 754.381 680.181 760.58 C 661.55 780.883 622.984 779.263 607.181 756.414 C 599.363 745.111 600.195 732.115 600.163 719.008 C 600.137 708.489 600.285 697.939 600.023 687.424 C 599.803 678.596 599.285 669.42 599.975 660.607 Z"/>
<path fill="#ff2a6d" fill-rule="evenodd" d="M 712.909 768.95 C 712.359 768.501 712.784 767.503 713.053 767.005 C 713.839 765.548 715.175 764.32 716.271 763.096 C 719.471 759.526 722.253 755.591 725.404 751.98 C 726.699 750.497 728.831 749.042 729.09 746.953 C 730.037 739.323 729.319 731.179 729.327 723.497 C 729.343 708.763 729.352 694.028 729.406 679.295 C 729.428 673.51 729.637 667.708 729.673 661.914 C 729.685 659.951 730.374 656.812 729.321 655.104 C 722.344 654.766 715.265 655.328 708.315 654.82 C 707.322 665.479 708.082 676.538 708.103 687.239 C 708.143 706.823 708.076 726.416 708.104 746.004 C 708.115 753.005 708.105 760.006 708.173 767.006 C 708.191 768.819 708.322 770.616 708.267 772.425 C 708.253 772.857 708.356 773.704 708.832 773.85 C 708.213 774.731 707.132 776.84 705.775 776.194 C 706.502 748.342 705.96 720.357 705.882 692.493 C 705.858 683.994 705.853 675.497 705.871 666.998 C 705.881 662.396 705.551 657.63 706.061 653.057 C 707.228 651.84 710.965 652.575 712.591 652.564 C 716.945 652.533 721.314 652.403 725.679 652.439 C 727.576 652.455 730.269 652.111 732.035 652.817 C 732.521 674.02 731.793 695.274 731.899 716.489 C 731.934 723.485 731.989 730.491 731.861 737.486 C 731.802 740.717 732.292 744.716 731.234 747.821 C 730.441 750.149 727.506 752.125 725.938 753.964 C 721.672 758.967 717.647 764.382 712.909 768.95 Z"/>
<path fill="#00ffff" fill-rule="evenodd" d="M 712.909 768.95 C 712.256 769.797 711.55 770.6 710.834 771.393 C 710.117 772.17 709.432 772.977 708.832 773.85 C 708.356 773.704 708.253 772.857 708.267 772.425 C 708.322 770.616 708.191 768.819 708.173 767.006 C 708.105 760.006 708.115 753.005 708.104 746.004 C 708.076 726.416 708.143 706.823 708.103 687.239 C 708.082 676.538 707.322 665.479 708.315 654.82 C 715.265 655.328 722.344 654.766 729.321 655.104 C 730.374 656.812 729.685 659.951 729.673 661.914 C 729.637 667.708 729.428 673.51 729.406 679.295 C 729.352 694.028 729.343 708.763 729.327 723.497 C 729.319 731.179 730.037 739.323 729.09 746.953 C 728.831 749.042 726.699 750.497 725.404 751.98 C 722.253 755.591 719.471 759.526 716.271 763.096 C 715.175 764.32 713.839 765.548 713.053 767.005 C 712.784 767.503 712.359 768.501 712.909 768.95 Z"/>
<path fill="#ff2a6d" fill-rule="evenodd" d="M 716.182 773.746 C 735.848 774.734 755.806 773.844 775.506 773.782 C 780.106 773.767 784.703 773.699 789.303 773.681 C 790.073 773.678 793.564 774.184 793.934 773.506 C 793.063 771.576 791.428 770.019 790.165 768.347 C 787.656 765.025 785.187 761.662 782.7 758.326 C 781.157 756.256 779.818 753.229 777.556 751.862 C 768.219 750.894 758.4 751.729 749.011 751.688 C 746.398 751.676 743.78 751.592 741.168 751.621 C 739.947 751.634 738.434 751.551 737.328 752.143 C 735.623 753.056 734.255 755.112 733.026 756.565 C 730.102 760.023 727.271 764.061 723.966 767.141 C 722.85 768.181 720.288 771.47 718.707 770.76 C 722.487 765.078 727.684 759.716 732.263 754.66 C 733.781 752.984 735.433 750.252 737.6 749.438 C 740.137 749.014 742.978 749.313 745.55 749.315 C 750.369 749.319 755.188 749.273 760.007 749.295 C 766.003 749.321 772.68 748.432 778.596 749.354 C 781.15 751.442 782.931 754.666 784.827 757.33 C 787.794 761.498 790.964 765.565 793.776 769.836 C 794.802 771.393 795.962 772.891 796.913 774.494 C 797.069 774.757 797.982 775.808 797.869 776.058 C 781.151 776.952 764.242 775.959 747.499 776.13 C 740 776.207 732.504 776.223 725.005 776.203 C 721.504 776.194 717.513 776.752 714.083 776.121 C 714.637 775.261 715.321 774.323 716.182 773.746 Z"/>
<path fill="#00ffff" fill-rule="evenodd" d="M 718.707 770.76 C 720.288 771.47 722.85 768.181 723.966 767.141 C 727.271 764.061 730.102 760.023 733.026 756.565 C 734.255 755.112 735.623 753.056 737.328 752.143 C 738.434 751.551 739.947 751.634 741.168 751.621 C 743.78 751.592 746.398 751.676 749.011 751.688 C 758.4 751.729 768.219 750.894 777.556 751.862 C 779.818 753.229 781.157 756.256 782.7 758.326 C 785.187 761.662 787.656 765.025 790.165 768.347 C 791.428 770.019 793.063 771.576 793.934 773.506 C 793.564 774.184 790.073 773.678 789.303 773.681 C 784.703 773.699 780.106 773.767 775.506 773.782 C 755.806 773.844 735.848 774.734 716.182 773.746 C 716.932 772.737 717.78 771.61 718.707 770.76 Z"/>
<path fill="#ff2a6d" fill-rule="evenodd" d="M 784.488 685.623 C 785.239 681.099 785.732 676.663 787.853 672.493 C 789.388 669.478 791.401 666.485 793.707 664.005 C 797.883 659.515 802.764 656.037 808.586 654.027 C 815.087 651.784 821.756 652.195 828.507 652.274 C 835.337 652.354 842.172 652.215 849.003 652.228 C 857.17 652.244 865.337 652.241 873.505 652.267 C 877.571 652.28 881.871 651.876 885.906 652.363 C 886.297 653.146 885.696 653.757 885.221 654.362 C 884.141 655.742 883.06 657.088 882.075 658.541 C 878.847 663.304 875.844 668.215 872.648 672.999 C 871.582 674.596 870.201 677.487 868.547 678.497 C 865.815 679.006 862.779 678.66 860.008 678.664 C 854.173 678.673 848.339 678.582 842.504 678.621 C 836.881 678.658 831.262 678.606 825.639 678.59 C 822.01 678.579 818.172 678.353 814.902 680.161 C 807.207 684.414 807.817 696.025 815.828 699.58 C 817.91 700.503 820.543 700.465 822.779 700.467 C 826.362 700.47 829.944 700.36 833.527 700.362 C 841.522 700.366 850.162 699.694 858.007 701.446 C 866.106 703.254 873.732 709.184 878.478 715.827 C 890.588 732.781 885.954 760.13 867.638 770.971 C 859.478 775.801 851.228 776.165 842.004 776.172 C 835.671 776.176 829.338 776.118 823.005 776.136 C 818.495 776.15 813.999 776.213 809.497 775.984 C 807.982 775.907 806.161 776.274 804.715 775.768 C 802.17 773.569 800.575 769.944 798.585 767.259 C 795.725 763.399 792.812 759.614 790.219 755.562 C 789.05 753.733 787.653 751.822 787.033 749.737 C 790.405 748.614 794.97 749.345 798.511 749.361 C 806.011 749.394 813.51 749.388 821.01 749.367 C 827.78 749.348 834.549 749.302 841.318 749.436 C 845.046 749.509 849.668 749.989 853.145 748.392 C 860.767 744.892 862.007 732.964 854.427 728.666 C 848.736 725.439 840.777 726.85 834.489 726.865 C 826.694 726.884 818.376 727.716 810.721 725.966 C 802.75 724.143 795.925 719.175 791.099 712.653 C 788.441 709.063 786.824 705.204 785.702 700.896 C 784.442 696.063 783.966 690.595 784.488 685.623 Z M 786.936 684.101 C 786.356 688.844 786.587 693.897 787.366 698.603 C 788.004 702.454 789.761 706.498 791.921 709.74 C 796.208 716.175 802.548 721.591 810.171 723.638 C 813.226 724.459 816.373 724.323 819.5 724.468 C 825.15 724.731 830.812 724.598 836.471 724.583 C 841.573 724.569 847.921 723.572 852.773 725.459 C 863.235 729.527 864.584 745.117 854.344 750.284 C 849.616 752.67 843.078 751.817 837.946 751.779 C 827.631 751.702 817.316 751.846 807 751.816 C 803 751.804 798.999 751.744 794.999 751.779 C 793.595 751.791 791.346 751.406 790.265 752.443 C 791.288 754.806 793.233 756.584 794.771 758.63 C 797.07 761.689 799.299 764.8 801.547 767.896 C 802.771 769.582 804.127 772.576 805.984 773.596 C 813.945 774.117 822.028 773.836 830.006 773.822 C 839.018 773.805 848.892 774.909 857.721 772.752 C 870.145 769.718 880.107 757.988 882.237 745.535 C 882.983 741.176 883.278 736.531 882.547 732.142 C 880.29 718.587 870.702 706.636 856.875 703.548 C 848.531 701.684 839.158 702.992 830.661 702.941 C 826.162 702.914 821.017 703.443 816.656 702.15 C 810.598 700.354 806.224 693.717 807.421 687.468 C 808.278 682.988 812.101 678.332 816.496 676.896 C 819.426 675.939 822.604 676.114 825.641 676.139 C 835.427 676.216 845.213 676.091 854.999 676.108 C 857.831 676.113 860.664 676.164 863.496 676.149 C 864.822 676.142 866.42 676.328 867.649 675.761 C 870.275 673.467 871.903 669.958 873.826 667.094 C 876.362 663.319 879.83 659.281 881.414 654.993 C 880.752 654.745 880.169 655.108 879.487 655.063 C 877.326 654.923 875.184 654.853 873.01 654.84 C 866.345 654.799 859.678 654.796 853.012 654.776 C 844.846 654.752 836.678 654.857 828.512 654.793 C 823.457 654.753 818.052 654.178 813.078 655.255 C 803.647 657.299 794.161 664.364 790.102 673.216 C 788.47 676.774 787.49 680.236 786.936 684.101 Z"/>
<path fill="#00ffff" fill-rule="evenodd" d="M 786.936 684.101 C 787.49 680.236 788.47 676.774 790.102 673.216 C 794.161 664.364 803.647 657.299 813.078 655.255 C 818.052 654.178 823.457 654.753 828.512 654.793 C 836.678 654.857 844.846 654.752 853.012 654.776 C 859.678 654.796 866.345 654.799 873.01 654.84 C 875.184 654.853 877.326 654.923 879.487 655.063 C 880.169 655.108 880.752 654.745 881.414 654.993 C 879.83 659.281 876.362 663.319 873.826 667.094 C 871.903 669.958 870.275 673.467 867.649 675.761 C 866.42 676.328 864.822 676.142 863.496 676.149 C 860.664 676.164 857.831 676.113 854.999 676.108 C 845.213 676.091 835.427 676.216 825.641 676.139 C 822.604 676.114 819.426 675.939 816.496 676.896 C 812.101 678.332 808.278 682.988 807.421 687.468 C 806.224 693.717 810.598 700.354 816.656 702.15 C 821.017 703.443 826.162 702.914 830.661 702.941 C 839.158 702.992 848.531 701.684 856.875 703.548 C 870.702 706.636 880.29 718.587 882.547 732.142 C 883.278 736.531 882.983 741.176 882.237 745.535 C 880.107 757.988 870.145 769.718 857.721 772.752 C 848.892 774.909 839.018 773.805 830.006 773.822 C 822.028 773.836 813.945 774.117 805.984 773.596 C 804.127 772.576 802.771 769.582 801.547 767.896 C 799.299 764.8 797.07 761.689 794.771 758.63 C 793.233 756.584 791.288 754.806 790.265 752.443 C 791.346 751.406 793.595 751.791 794.999 751.779 C 798.999 751.744 803 751.804 807 751.816 C 817.316 751.846 827.631 751.702 837.946 751.779 C 843.078 751.817 849.616 752.67 854.344 750.284 C 864.584 745.117 863.235 729.527 852.773 725.459 C 847.921 723.572 841.573 724.569 836.471 724.583 C 830.812 724.598 825.15 724.731 819.5 724.468 C 816.373 724.323 813.226 724.459 810.171 723.638 C 802.548 721.591 796.208 716.175 791.921 709.74 C 789.761 706.498 788.004 702.454 787.366 698.603 C 786.587 693.897 786.356 688.844 786.936 684.101 Z"/>
<path fill="#ff2a6d" fill-rule="evenodd" d="M 983.889 676.013 C 982.518 675.8 982.042 675.384 981.127 674.296 C 981.126 673.719 981.509 673.248 980.915 672.936 C 981.03 670.112 980.722 667.309 980.822 664.487 C 980.902 662.216 981.352 659.722 980.84 657.479 C 980.835 656.691 980.88 655.905 980.888 655.117 C 978.233 654.266 974.314 654.836 971.508 654.809 C 964.843 654.744 958.176 654.687 951.511 654.731 C 944.367 654.778 937.221 654.778 930.076 654.748 C 922.606 654.717 915.705 654.623 909.109 658.69 C 903.802 661.962 898.762 667.233 897.04 673.374 C 895.139 680.156 896.15 688.018 896.128 695.005 C 896.045 721.244 896.532 747.514 896.145 773.742 C 901.084 774.403 906.518 773.823 911.505 773.773 C 920.171 773.686 928.841 773.82 937.507 773.853 C 943.84 773.878 950.173 773.834 956.505 773.828 C 959.867 773.824 963.686 774.265 966.985 773.567 C 968.751 772.856 969.964 769.947 971.009 768.443 C 973.573 764.754 975.928 760.976 978.287 757.155 C 979.11 755.822 980.801 753.649 981.028 752.107 C 978.818 751.589 976.274 751.905 974.008 751.867 C 969.009 751.783 964.008 751.822 959.008 751.783 C 949.177 751.706 939.343 751.716 929.511 751.688 C 925.692 751.676 921.725 751.27 917.937 751.45 C 917.113 748.992 917.608 745.581 917.594 743.001 C 917.56 736.77 917.729 730.57 917.905 724.347 C 919.02 723.939 920.601 724.143 921.776 724.145 C 924.352 724.149 926.927 724.21 929.503 724.221 C 937.501 724.256 945.499 724.078 953.497 724.13 C 957.438 724.156 962.047 724.923 965.882 723.872 C 967.808 722.414 969.116 719.651 970.361 717.622 C 973.028 713.274 977.042 708.497 978.405 703.535 C 977.132 702.956 975.401 703.196 974.019 703.152 C 970.731 703.046 967.436 703.085 964.147 703.112 C 953.623 703.2 943.044 702.899 932.498 702.902 C 929.331 702.903 926.165 702.906 922.999 702.922 C 921.504 702.929 919.606 703.126 918.196 702.582 C 917.414 699.71 917.79 696.447 917.788 693.498 C 917.782 687.921 917.789 682.326 918.178 676.768 C 926.2 675.954 934.448 676.424 942.505 676.313 C 954.249 676.15 966.144 675.706 977.863 675.916 C 978.502 676.243 978.605 676.228 979.178 675.814 C 978.759 676.532 979.049 677.615 978.463 678.176 C 963.99 678.897 949.498 678.504 935 678.667 C 931.367 678.708 927.726 678.663 924.095 678.807 C 922.845 678.857 920.812 678.531 919.863 679.407 C 919.25 684.341 919.728 689.745 919.704 694.737 C 919.697 696.203 919.122 699.327 919.979 700.506 C 925.441 700.745 931.02 700.362 936.498 700.33 C 945.665 700.275 954.833 700.389 964 700.394 C 968.227 700.397 972.451 700.478 976.676 700.572 C 978.837 700.62 981.072 700.357 983.205 700.749 C 983.398 701.361 982.936 701.975 982.6 702.487 C 981.644 703.941 980.578 705.326 979.612 706.776 C 976.522 711.412 973.77 716.229 970.783 720.926 C 969.857 722.384 968.464 725.515 966.915 726.299 C 963.947 726.638 960.895 726.305 957.912 726.39 C 949.443 726.629 940.976 726.562 932.498 726.55 C 929.488 726.545 926.489 726.393 923.486 726.544 C 922.123 726.613 920.789 726.137 919.643 727.028 C 919.346 730.62 919.757 734.37 919.755 737.988 C 919.753 741.699 919.335 745.631 919.669 749.317 C 924.85 749.758 930.3 749.317 935.505 749.265 C 946.83 749.151 958.181 749.124 969.507 749.242 C 974.696 749.297 980.029 748.923 985.195 749.39 C 985.531 751.171 982.465 754.399 981.565 755.806 C 978.297 760.916 975.251 766.183 971.759 771.151 C 970.868 772.419 969.842 775.236 968.478 775.921 C 943.589 775.861 918.649 776.089 893.751 776.095 C 893.317 772.458 893.708 768.653 893.744 764.996 C 893.801 759.162 893.707 753.328 893.77 747.494 C 893.944 731.495 893.819 715.488 893.836 699.488 C 893.848 688.404 891.927 675.44 898.477 665.775 C 902.776 659.432 909.929 654.398 917.493 652.933 C 923.08 651.851 928.926 652.286 934.582 652.268 C 943.224 652.239 951.866 652.223 960.508 652.272 C 966.529 652.306 972.582 652.176 978.593 652.564 C 980.548 652.69 982.636 652.282 984.54 652.77 C 984.606 660.498 983.385 668.238 983.889 676.013 Z"/>
<path fill="#00ffff" fill-rule="evenodd" d="M 980.84 657.479 C 980.814 658.714 981.061 660.16 980.821 661.368 C 980.603 662.462 979.931 663.302 979.79 664.476 C 979.554 666.444 979.762 668.491 979.294 670.424 C 978.849 672.264 978.124 674.032 977.863 675.916 C 966.144 675.706 954.249 676.15 942.505 676.313 C 934.448 676.424 926.2 675.954 918.178 676.768 C 917.789 682.326 917.782 687.921 917.788 693.498 C 917.79 696.447 917.414 699.71 918.196 702.582 C 919.606 703.126 921.504 702.929 922.999 702.922 C 926.165 702.906 929.331 702.903 932.498 702.902 C 943.044 702.899 953.623 703.2 964.147 703.112 C 967.436 703.085 970.731 703.046 974.019 703.152 C 975.401 703.196 977.132 702.956 978.405 703.535 C 977.042 708.497 973.028 713.274 970.361 717.622 C 969.116 719.651 967.808 722.414 965.882 723.872 C 962.047 724.923 957.438 724.156 953.497 724.13 C 945.499 724.078 937.501 724.256 929.503 724.221 C 926.927 724.21 924.352 724.149 921.776 724.145 C 920.601 724.143 919.02 723.939 917.905 724.347 C 917.729 730.57 917.56 736.77 917.594 743.001 C 917.608 745.581 917.113 748.992 917.937 751.45 C 921.725 751.27 925.692 751.676 929.511 751.688 C 939.343 751.716 949.177 751.706 959.008 751.783 C 964.008 751.822 969.009 751.783 974.008 751.867 C 976.274 751.905 978.818 751.589 981.028 752.107 C 980.801 753.649 979.11 755.822 978.287 757.155 C 975.928 760.976 973.573 764.754 971.009 768.443 C 969.964 769.947 968.751 772.856 966.985 773.567 C 963.686 774.265 959.867 773.824 956.505 773.828 C 950.173 773.834 943.84 773.878 937.507 773.853 C 928.841 773.82 920.171 773.686 911.505 773.773 C 906.518 773.823 901.084 774.403 896.145 773.742 C 896.532 747.514 896.045 721.244 896.128 695.005 C 896.15 688.018 895.139 680.156 897.04 673.374 C 898.762 667.233 903.802 661.962 909.109 658.69 C 915.705 654.623 922.606 654.717 930.076 654.748 C 937.221 654.778 944.367 654.778 951.511 654.731 C 958.176 654.687 964.843 654.744 971.508 654.809 C 974.314 654.836 978.233 654.266 980.888 655.117 C 980.88 655.905 980.835 656.691 980.84 657.479 Z"/>
<path fill="#ff2a6d" fill-rule="evenodd" d="M 980.84 657.479 C 981.352 659.722 980.902 662.216 980.822 664.487 C 980.722 667.309 981.03 670.112 980.915 672.936 C 980.168 671.929 980.122 674.595 979.761 675.234 C 979.271 675.552 979.458 675.352 979.178 675.814 C 978.605 676.228 978.502 676.243 977.863 675.916 C 978.124 674.032 978.849 672.264 979.294 670.424 C 979.762 668.491 979.554 666.444 979.79 664.476 C 979.931 663.302 980.603 662.462 980.821 661.368 C 981.061 660.16 980.814 658.714 980.84 657.479 Z"/>
<path fill="#ff2a6d" fill-rule="evenodd" d="M 979.178 675.814 C 979.458 675.352 979.271 675.552 979.761 675.234 C 980.245 674.952 980.666 674.611 981.127 674.296 C 982.042 675.384 982.518 675.8 983.889 676.013 C 983.951 676.594 984.698 680.03 983.998 680.246 C 983.693 679.79 983.477 678.726 983.053 678.416 C 982.014 677.656 979.673 678.153 978.463 678.176 C 979.049 677.615 978.759 676.532 979.178 675.814 Z"/>
<path fill="#ff2a6d" fill-rule="evenodd" d="M 980.915 672.936 C 981.509 673.248 981.126 673.719 981.127 674.296 C 980.666 674.611 980.245 674.952 979.761 675.234 C 980.122 674.595 980.168 671.929 980.915 672.936 Z"/>
</svg>
